<svg width="1324" height="500" viewBox="0 0 1324 500" fill="none" xmlns="http://www.w3.org/2000/svg">
    <path d="M29.5215 165.631C29.5215 80.2981 157.521 80.298 157.521 165.631" stroke="black"
        stroke-width="8" stroke-linecap="round" stroke-linejoin="round" />
    <circle cx="93.5215" cy="57.3154" r="28" stroke="black" stroke-width="8" stroke-linecap="round"
    />
    <path d="M29.5215 474.004C29.5215 388.671 157.521 388.671 157.521 474.004" stroke="black"
        stroke-width="8" stroke-linecap="round" stroke-linejoin="round" />
    <circle cx="93.5215" cy="365.688" r="28" stroke="black" stroke-width="8" stroke-linecap="round"
    />
    <path
        d="M512.47 108.006C512.47 179.662 759.016 177.052 759.016 108.006M512.47 108.006V383.099C512.47 455.202 759.016 448.362 759.016 383.099V108.006M512.47 108.006C512.47 41.8928 759.016 38.9602 759.016 108.006"
        stroke="black" stroke-width="8" />
    <path
        d="M577.856 266.677H586.219L590.424 272.086L594.56 276.904L602.356 286.677H593.174L587.81 280.086L585.06 276.177L577.856 266.677ZM603.06 259.586C603.06 264.662 602.098 268.98 600.174 272.541C598.265 276.101 595.659 278.821 592.356 280.7C589.068 282.563 585.371 283.495 581.265 283.495C577.129 283.495 573.416 282.556 570.129 280.677C566.841 278.798 564.242 276.079 562.333 272.518C560.424 268.957 559.469 264.647 559.469 259.586C559.469 254.51 560.424 250.192 562.333 246.632C564.242 243.071 566.841 240.359 570.129 238.495C573.416 236.616 577.129 235.677 581.265 235.677C585.371 235.677 589.068 236.616 592.356 238.495C595.659 240.359 598.265 243.071 600.174 246.632C602.098 250.192 603.06 254.51 603.06 259.586ZM593.083 259.586C593.083 256.298 592.591 253.526 591.606 251.268C590.636 249.01 589.265 247.298 587.492 246.132C585.719 244.965 583.644 244.382 581.265 244.382C578.886 244.382 576.81 244.965 575.038 246.132C573.265 247.298 571.886 249.01 570.901 251.268C569.932 253.526 569.447 256.298 569.447 259.586C569.447 262.874 569.932 265.647 570.901 267.904C571.886 270.162 573.265 271.874 575.038 273.041C576.81 274.207 578.886 274.791 581.265 274.791C583.644 274.791 585.719 274.207 587.492 273.041C589.265 271.874 590.636 270.162 591.606 267.904C592.591 265.647 593.083 262.874 593.083 259.586ZM610.168 282.859V247.95H619.555V254.041H619.918C620.555 251.874 621.623 250.238 623.123 249.132C624.623 248.01 626.35 247.45 628.305 247.45C628.79 247.45 629.312 247.48 629.873 247.541C630.433 247.601 630.926 247.685 631.35 247.791V256.382C630.896 256.245 630.267 256.124 629.464 256.018C628.661 255.912 627.926 255.859 627.259 255.859C625.835 255.859 624.562 256.169 623.441 256.791C622.335 257.397 621.456 258.245 620.805 259.336C620.168 260.427 619.85 261.685 619.85 263.109V282.859H610.168ZM636.356 282.859V247.95H646.038V282.859H636.356ZM641.219 243.45C639.78 243.45 638.545 242.973 637.515 242.018C636.5 241.048 635.992 239.889 635.992 238.541C635.992 237.207 636.5 236.063 637.515 235.109C638.545 234.139 639.78 233.654 641.219 233.654C642.659 233.654 643.886 234.139 644.901 235.109C645.932 236.063 646.447 237.207 646.447 238.541C646.447 239.889 645.932 241.048 644.901 242.018C643.886 242.973 642.659 243.45 641.219 243.45ZM669.702 283.541C666.112 283.541 663.021 282.813 660.43 281.359C657.854 279.889 655.869 277.813 654.475 275.132C653.081 272.435 652.384 269.245 652.384 265.563C652.384 261.973 653.081 258.821 654.475 256.109C655.869 253.397 657.831 251.283 660.362 249.768C662.907 248.253 665.892 247.495 669.316 247.495C671.619 247.495 673.763 247.866 675.748 248.609C677.748 249.336 679.49 250.435 680.975 251.904C682.475 253.374 683.642 255.223 684.475 257.45C685.308 259.662 685.725 262.253 685.725 265.223V267.882H656.248V261.882H676.612C676.612 260.488 676.308 259.253 675.702 258.177C675.096 257.101 674.255 256.26 673.18 255.654C672.119 255.033 670.884 254.723 669.475 254.723C668.005 254.723 666.702 255.063 665.566 255.745C664.445 256.412 663.566 257.313 662.93 258.45C662.293 259.571 661.968 260.821 661.952 262.2V267.904C661.952 269.632 662.271 271.124 662.907 272.382C663.558 273.639 664.475 274.609 665.657 275.291C666.839 275.973 668.24 276.313 669.862 276.313C670.937 276.313 671.922 276.162 672.816 275.859C673.71 275.556 674.475 275.101 675.112 274.495C675.748 273.889 676.233 273.147 676.566 272.268L685.521 272.859C685.066 275.01 684.134 276.889 682.725 278.495C681.331 280.086 679.528 281.329 677.316 282.223C675.119 283.101 672.581 283.541 669.702 283.541ZM692.043 282.859V247.95H701.43V254.041H701.793C702.43 251.874 703.498 250.238 704.998 249.132C706.498 248.01 708.225 247.45 710.18 247.45C710.665 247.45 711.187 247.48 711.748 247.541C712.308 247.601 712.801 247.685 713.225 247.791V256.382C712.771 256.245 712.142 256.124 711.339 256.018C710.536 255.912 709.801 255.859 709.134 255.859C707.71 255.859 706.437 256.169 705.316 256.791C704.21 257.397 703.331 258.245 702.68 259.336C702.043 260.427 701.725 261.685 701.725 263.109V282.859H692.043Z"
        fill="black" />
    <path
        d="M905.857 173.716L842.681 147.807M842.681 147.807L893.289 102.436M842.681 147.807L1066.74 108.3"
        stroke="black" stroke-width="8" stroke-linecap="round" stroke-linejoin="round" />
    <path
        d="M388.83 102.436L439.336 148.39M439.336 148.39L376.262 173.716M439.336 148.39L215.279 108.882M215.279 108.882L268.315 154.682M215.279 108.882L280.884 83.402"
        stroke="black" stroke-width="8" stroke-linecap="round" stroke-linejoin="round" />
    <path
        d="M376.262 309.239L439.439 335.148M439.439 335.148L388.83 380.519M439.439 335.148L215.381 374.655M215.381 374.655L280.884 399.553M215.381 374.655L268.315 328.273"
        stroke="black" stroke-width="8" stroke-linecap="round" stroke-linejoin="round" />
    <path
        d="M1016.23 291.893L1066.74 337.847M1066.74 337.847L1003.66 363.173M1066.74 337.847L842.68 298.339"
        stroke="black" stroke-width="8" stroke-linecap="round" stroke-linejoin="round" />
    <path
        d="M1135.87 66.7993V113.345H1130.23V66.7993H1135.87ZM1147.17 66.7993H1153.9L1169.72 105.436H1170.26L1186.08 66.7993H1192.81V113.345H1187.54V77.9811H1187.08L1172.54 113.345H1167.44L1152.9 77.9811H1152.44V113.345H1147.17V66.7993ZM1206.02 113.345H1200.11L1217.2 66.7993H1223.02L1240.11 113.345H1234.2L1220.29 74.1629H1219.93L1206.02 113.345ZM1208.2 95.1629H1232.02V100.163H1208.2V95.1629ZM1247.36 113.345V66.7993H1263.09C1266.74 66.7993 1269.72 67.4584 1272.04 68.7765C1274.37 70.0796 1276.1 71.8447 1277.22 74.072C1278.34 76.2993 1278.9 78.7841 1278.9 81.5265C1278.9 84.269 1278.34 86.7614 1277.22 89.0038C1276.12 91.2462 1274.4 93.0341 1272.09 94.3675C1269.77 95.6856 1266.8 96.3447 1263.18 96.3447H1251.9V91.3447H1263C1265.5 91.3447 1267.5 90.9129 1269.02 90.0493C1270.53 89.1856 1271.63 88.019 1272.31 86.5493C1273.01 85.0644 1273.36 83.3902 1273.36 81.5265C1273.36 79.6629 1273.01 77.9962 1272.31 76.5265C1271.63 75.0568 1270.53 73.9053 1269 73.072C1267.47 72.2235 1265.43 71.7993 1262.9 71.7993H1253V113.345H1247.36Z"
        fill="black" />
    <path
        d="M1155.69 330.779C1155.42 328.476 1154.31 326.688 1152.37 325.415C1150.43 324.143 1148.05 323.506 1145.23 323.506C1143.17 323.506 1141.37 323.84 1139.82 324.506C1138.29 325.173 1137.1 326.09 1136.23 327.256C1135.39 328.423 1134.96 329.749 1134.96 331.233C1134.96 332.476 1135.26 333.544 1135.85 334.438C1136.45 335.317 1137.23 336.052 1138.17 336.643C1139.11 337.218 1140.09 337.696 1141.12 338.074C1142.15 338.438 1143.1 338.733 1143.96 338.961L1148.69 340.233C1149.9 340.552 1151.25 340.991 1152.73 341.552C1154.23 342.112 1155.67 342.877 1157.03 343.847C1158.41 344.802 1159.54 346.029 1160.44 347.529C1161.33 349.029 1161.78 350.87 1161.78 353.052C1161.78 355.567 1161.12 357.84 1159.8 359.87C1158.5 361.9 1156.59 363.514 1154.07 364.711C1151.57 365.908 1148.54 366.506 1144.96 366.506C1141.63 366.506 1138.74 365.968 1136.3 364.893C1133.88 363.817 1131.97 362.317 1130.57 360.393C1129.2 358.468 1128.42 356.233 1128.23 353.688H1134.05C1134.2 355.446 1134.79 356.9 1135.82 358.052C1136.87 359.188 1138.19 360.036 1139.78 360.597C1141.39 361.143 1143.11 361.415 1144.96 361.415C1147.11 361.415 1149.04 361.067 1150.76 360.37C1152.47 359.658 1153.82 358.673 1154.82 357.415C1155.82 356.143 1156.32 354.658 1156.32 352.961C1156.32 351.415 1155.89 350.158 1155.03 349.188C1154.17 348.218 1153.03 347.43 1151.62 346.824C1150.21 346.218 1148.69 345.688 1147.05 345.233L1141.32 343.597C1137.69 342.552 1134.81 341.059 1132.69 339.12C1130.57 337.18 1129.51 334.643 1129.51 331.506C1129.51 328.9 1130.21 326.627 1131.62 324.688C1133.04 322.733 1134.95 321.218 1137.35 320.143C1139.76 319.052 1142.45 318.506 1145.42 318.506C1148.42 318.506 1151.08 319.044 1153.42 320.12C1155.75 321.18 1157.6 322.635 1158.96 324.483C1160.34 326.332 1161.07 328.43 1161.14 330.779H1155.69ZM1171.05 319.143H1177.77L1193.59 357.779H1194.14L1209.96 319.143H1216.68V365.688H1211.41V330.324H1210.96L1196.41 365.688H1191.32L1176.77 330.324H1176.32V365.688H1171.05V319.143ZM1225.44 324.143V319.143H1260.35V324.143H1245.71V365.688H1240.07V324.143H1225.44ZM1269.05 365.688V319.143H1284.77C1288.43 319.143 1291.41 319.802 1293.73 321.12C1296.06 322.423 1297.79 324.188 1298.91 326.415C1300.03 328.643 1300.59 331.127 1300.59 333.87C1300.59 336.612 1300.03 339.105 1298.91 341.347C1297.8 343.59 1296.09 345.377 1293.77 346.711C1291.46 348.029 1288.49 348.688 1284.86 348.688H1273.59V343.688H1284.68C1287.18 343.688 1289.19 343.256 1290.71 342.393C1292.22 341.529 1293.32 340.362 1294 338.893C1294.7 337.408 1295.05 335.733 1295.05 333.87C1295.05 332.006 1294.7 330.34 1294 328.87C1293.32 327.4 1292.21 326.249 1290.68 325.415C1289.15 324.567 1287.12 324.143 1284.59 324.143H1274.68V365.688H1269.05Z"
        fill="black" />
</svg>
